
        <svg xmlns="http://www.w3.org/2000/svg" xmlns:xlink="http://www.w3.org/1999/xlink" version="1.1" width="3135.135135135135" 
        height="844.5945945945946" viewBox="0 0 3135.135135135135 844.5945945945946">
			
			<g transform="scale(6.756756756756757) translate(10, 10)">
				<defs id="SvgjsDefs1739"><linearGradient id="SvgjsLinearGradient1748"><stop id="SvgjsStop1749" stop-color="#7f00ff" offset="0"></stop><stop id="SvgjsStop1750" stop-color="#e100ff" offset="1"></stop></linearGradient></defs><g id="SvgjsG1740" featureKey="rootContainer" transform="matrix(1,0,0,1,0,0)" fill="url(#SvgjsLinearGradient1748)"><rect xmlns="http://www.w3.org/2000/svg" width="444" height="105" rx="10" ry="10"></rect></g><g id="SvgjsG1741" featureKey="nameLeftFeature-0" transform="matrix(2.938931703567505,0,0,2.938931703567505,20,14.950677650810526)" fill="#eeeeee"><path d="M2.96 20.16 l-0.44 0 c-1.4 0 -2.52 -1.12 -2.52 -2.52 l0 -9.64 c0 -1.4 1.12 -2.54 2.52 -2.54 l0.44 0 c1.4 0 2.52 1.14 2.52 2.54 l0 1.02 l-1.96 0 l0 -1.02 c0 -0.34 -0.24 -0.58 -0.56 -0.58 l-0.44 0 c-0.3 0 -0.58 0.24 -0.58 0.58 l0 9.64 c0 0.3 0.28 0.58 0.58 0.58 l0.44 0 c0.32 0 0.56 -0.28 0.56 -0.58 l0 -5.2 l-1.12 0 l0 -1.94 l3.08 0 l0 7.14 c0 1.4 -1.12 2.52 -2.52 2.52 z M13.454500000000001 20.04 l-2.04 0 l-1.1 -3.02 l-0.44 0 l0 3.02 l-1.9 0 l0 -14.32 l2.98 0 c1.32 0 2.38 1.06 2.38 2.38 l0 6.54 c0 0.86 -0.44 1.6 -1.12 2.02 z M9.874500000000001 7.619999999999999 l0 7.5 l1.08 0 c0.26 0 0.48 -0.22 0.48 -0.48 l0 -6.54 c0 -0.26 -0.22 -0.48 -0.48 -0.48 l-1.08 0 z M20.949 20 l-0.72 -4.94 l-2.02 0 l-0.66 4.94 l-1.92 0 l2.16 -14.3 l2.58 0 l2.5 14.3 l-1.92 0 z M18.469 13.16 l1.48 0 l-0.76 -5.2 z M30.0635 10.62 l0 1.88 l-2.82 0 l0 7.46 l-1.88 0 l0 -14.24 l4.66 0 l0 1.9 l-2.78 0 l0 3 l2.82 0 z M34.458 5.68 l0 14.24 l-1.9 0 l0 -14.24 l1.9 0 z M42.2725 20 l-0.72 -4.94 l-2.02 0 l-0.66 4.94 l-1.92 0 l2.16 -14.3 l2.58 0 l2.5 14.3 l-1.92 0 z M39.792500000000004 13.16 l1.48 0 l-0.76 -5.2 z"></path></g><g id="SvgjsG1742" featureKey="inlineSymbolFeature-0" transform="matrix(0.8100000023841858,0,0,0.8100000023841858,156.49894531249998,11.899999999999999)" fill="#eeeeee"><path xmlns="http://www.w3.org/2000/svg" d="M16.667,43.33C16.667,69.104,37.559,90,63.333,90v-6.667c-22.093,0-40-17.91-40-40.003H16.667z"></path><path xmlns="http://www.w3.org/2000/svg" d="M63.333,16.667c-14.729,0-26.666,11.94-26.666,26.664C36.667,58.06,48.604,70,63.333,70v6.667  C44.922,76.667,30,61.741,30,43.33C30,24.922,44.922,10,63.333,10V16.667z"></path><path xmlns="http://www.w3.org/2000/svg" d="M63.333,43.333v20c-11.048,0-20-8.955-20-20.003c0-11.045,8.952-19.997,20-19.997c11.049,0,20,8.952,20,19.997  L63.333,43.333z"></path></g><g id="SvgjsG1743" featureKey="nameRightFeature-0" transform="matrix(2.930365562438965,0,0,2.930365562438965,227.89443561208267,15.237837837837839)" fill="#eeeeee"><path d="M11.2945 5.68 l3.34 0 l0 14.28 l-1.88 0 l0 -11.3 l-1.78 11.34 l-0.74 0 l-0.18 -0.04 l-0.16 0.04 l-0.74 0 l-1.76 -11.34 l0 11.3 l-1.9 0 l0 -14.28 l3.36 0 l1.22 8.08 z M21.789 12.46 l-2.76 0 l0 5.64 l2.78 0 l0 1.9 l-4.68 0 l0 -14.28 l4.68 0 l0 1.9 l-2.78 0 l0 2.94 l2.76 0 l0 1.9 z M26.8035 20.02 l-2.5 0 l0 -14.26 l2.5 0 c1.7 0 3.06 1.38 3.06 3.08 l0 8.1 c0 0.82 -0.32 1.6 -0.9 2.18 s-1.34 0.9 -2.16 0.9 z M26.2035 7.68 l0 10.42 l0.6 0 c0.3 0 0.6 -0.12 0.82 -0.34 s0.34 -0.5 0.34 -0.82 l0 -8.1 c0 -0.64 -0.52 -1.16 -1.16 -1.16 l-0.6 0 z M34.258 5.68 l0 14.24 l-1.9 0 l0 -14.24 l1.9 0 z M39.432500000000005 19.96 c-1.48 0 -2.68 -1.2 -2.68 -2.68 l0 -8.88 c0 -1.48 1.2 -2.68 2.68 -2.68 s2.68 1.2 2.68 2.68 l0 0.8 l-1.9 0 l0 -0.8 c0 -0.42 -0.36 -0.78 -0.78 -0.78 s-0.78 0.36 -0.78 0.78 l0 8.88 c0 0.42 0.36 0.78 0.78 0.78 s0.78 -0.36 0.78 -0.78 l0 -1.28 l1.9 0 l0 1.28 c0 1.48 -1.2 2.68 -2.68 2.68 z M49.92700000000001 20 l-0.72 -4.94 l-2.02 0 l-0.66 4.94 l-1.92 0 l2.16 -14.3 l2.58 0 l2.5 14.3 l-1.92 0 z M47.447 13.16 l1.48 0 l-0.76 -5.2 z M56.22150000000001 18.12 l2.76 0 l0 1.88 l-4.64 0 l0 -14.36 l1.88 0 l0 12.48 z M64.21600000000001 20.12 c-1.52 0 -2.74 -1.24 -2.74 -2.74 l0 -2.18 l1.94 0 l0 2.18 c0 0.44 0.36 0.8 0.8 0.8 s0.78 -0.36 0.78 -0.8 l0 -1.9 l-3.52 -4.86 l0 -2.48 c0 -1.52 1.22 -2.76 2.74 -2.76 c1.5 0 2.72 1.24 2.72 2.76 l0 2.16 l-1.94 0 l0 -2.16 c0 -0.46 -0.34 -0.8 -0.78 -0.8 s-0.8 0.34 -0.8 0.8 l0 1.82 l3.52 4.86 l0 2.56 c0 1.5 -1.22 2.74 -2.72 2.74 z"></path></g>
			</g>
		</svg>
	