<?xml version="1.0" encoding="UTF-8"?>
<svg width="233px" height="197px" viewBox="0 0 233 197" version="1.1" xmlns="http://www.w3.org/2000/svg" xmlns:xlink="http://www.w3.org/1999/xlink">
    <!-- Generator: Sketch 61 (89581) - https://sketch.com -->
    <title>Group 24</title>
    <desc>Created with Sketch.</desc>
    <g id="Page-1" stroke="none" stroke-width="1" fill="none" fill-rule="evenodd">
        <g id="Test-A" transform="translate(-289.000000, -4363.000000)">
            <g id="Cloud" transform="translate(-1.000000, 4286.000000)">
                <g id="Group-49">
                    <g id="Group-24" transform="translate(293.000000, 80.000000)">
                        <g id="Group-4">
                            <g id="cloud-graphic-1">
                                <g id="Group-29">
                                    <g id="cloud-flat" transform="translate(0.000000, 0.000000)" stroke="#FFFFFF" stroke-width="5">
                                        <path d="M39.0290454,145.437651 C17.414143,145.0848 0,127.333029 0,105.486135 C0,85.8675704 14.0429115,69.5513471 32.5601737,66.1715002 C32.5480489,65.8264475 32.541958,65.4787883 32.541958,65.1296969 C32.541958,49.0203711 45.5123941,35.9611823 61.5122378,35.9611823 C64.7907174,35.9611823 67.9420016,36.5094968 70.8805639,37.5200138 C80.9762743,15.3774946 103.193175,0 128.977273,0 C164.264599,0 192.870629,28.8017725 192.870629,64.3305595 C192.870629,64.8604747 192.864266,65.3888934 192.851611,65.9157424 C212.147269,68.6262884 227,85.3098223 227,105.486135 C227,127.553704 209.232279,145.443004 187.314685,145.443004 C187.049261,145.443004 186.784446,145.440381 186.520263,145.435158 L186.520979,145.443004 L39.6853147,145.443004 Z" id="Combined-Shape"></path>
                                    </g>
                                    <rect id="Rectangle-9" stroke="#2B437A" stroke-width="4" fill="#F2F2F2" x="69.7072776" y="110.643758" width="96.6523438" height="69.5984928" rx="5"></rect>
                                    <rect id="Rectangle-6" fill="#2B437A" x="61.7268088" y="189.680191" width="111.726563" height="3.56915348" rx="1.78457674"></rect>
                                    <g id="Group-34" transform="translate(92.584628, 63.454686)" fill="#43A2E6" stroke="#43A2E6">
                                        <path d="M26.0279848,5.97689274 L28.0730298,5.97689274 L28.0730298,66.2175281 C28.0730298,66.7822517 27.6152309,67.2400506 27.0505073,67.2400506 C26.4857837,67.2400506 26.0279848,66.7822517 26.0279848,66.2175281 L26.0279848,5.97689274 L26.0279848,5.97689274 Z" id="Rectangle-2" stroke-width="3"></path>
                                        <path d="M16.2016457,-2.53627586 L17.0818982,-2.76053432 L17.0818982,-2.76053432 L15.902609,30.1597584 C15.8697656,31.0765936 15.0998991,31.7932104 14.183064,31.7603671 C14.1383925,31.7587668 14.0938038,31.7553641 14.0494067,31.7501672 C13.037634,31.6317347 12.2846671,30.7588952 12.315907,29.7406937 L13.1910474,1.21724032 C13.2457329,-0.565127023 14.473637,-2.09603784 16.2016457,-2.53627586 Z" id="Rectangle-2-Copy" stroke-width="2" transform="translate(14.671288, 14.599506) rotate(45.000000) translate(-14.671288, -14.599506) "></path>
                                        <path d="M38.3181553,-2.88319764 C39.2802877,-2.69738735 39.974756,-1.85427783 39.9728248,-0.874369485 L39.9101407,30.931686 L39.9101407,30.931686 C37.9565031,30.8368015 36.4254329,29.2178712 36.4395932,27.2619821 L36.6479327,-1.51480673 C36.6535465,-2.29020967 37.2866857,-2.91424706 38.0620886,-2.90863326 C38.1480429,-2.90801097 38.2337583,-2.89949668 38.3181553,-2.88319764 Z" id="Rectangle-2-Copy-2" stroke-width="2" transform="translate(38.195204, 13.864145) rotate(135.000000) translate(-38.195204, -13.864145) "></path>
                                    </g>
                                </g>
                            </g>
                        </g>
                    </g>
                </g>
            </g>
        </g>
    </g>
</svg>